<?xml version="1.0" encoding="utf-8"?>
<!-- Generator: Adobe Illustrator 17.1.0, SVG Export Plug-In . SVG Version: 6.00 Build 0)  -->
<!DOCTYPE svg PUBLIC "-//W3C//DTD SVG 1.1//EN" "http://www.w3.org/Graphics/SVG/1.1/DTD/svg11.dtd">
<svg version="1.1" id="Layer_1" xmlns="http://www.w3.org/2000/svg" xmlns:xlink="http://www.w3.org/1999/xlink" x="0px" y="0px"
	 viewBox="0 0 50 50" enable-background="new 0 0 50 50" xml:space="preserve">
<path id="Icon_VK" fill-rule="evenodd" clip-rule="evenodd" d="M24.6,34.3h2c0,0,0.6-0.1,0.9-0.4c0.3-0.3,0.3-0.9,0.3-0.9
	s0-2.6,1.2-3c1.2-0.4,2.8,2.6,4.4,3.7c1.2,0.9,2.2,0.7,2.2,0.7l4.4-0.1c0,0,2.3-0.1,1.2-2c-0.1-0.1-0.6-1.3-3.3-3.8
	c-2.8-2.6-2.4-2.1,0.9-6.6c2-2.7,2.8-4.3,2.6-5.1c-0.2-0.7-1.7-0.5-1.7-0.5l-5,0c0,0-0.4-0.1-0.6,0.1c-0.3,0.2-0.4,0.5-0.4,0.5
	s-0.8,2.1-1.8,3.9c-2.2,3.7-3.1,3.9-3.4,3.7c-0.8-0.5-0.6-2.2-0.6-3.3c0-3.6,0.6-5.1-1.1-5.5c-0.5-0.1-0.9-0.2-2.3-0.2
	c-1.8,0-3.3,0-4.1,0.4c-0.6,0.3-1,0.9-0.7,0.9c0.3,0,1.1,0.2,1.5,0.7c0.5,0.7,0.5,2.2,0.5,2.2s0.3,4.3-0.7,4.8
	c-0.7,0.4-1.6-0.4-3.6-3.8c-1-1.7-1.8-3.7-1.8-3.7s-0.1-0.4-0.4-0.6c-0.3-0.2-0.8-0.3-0.8-0.3l-4.7,0c0,0-0.7,0-1,0.3
	c-0.2,0.3,0,0.8,0,0.8s3.7,8.6,7.9,13C20.3,34.6,24.6,34.3,24.6,34.3L24.6,34.3z"/>
</svg>
