<?xml version="1.0" encoding="utf-8"?><!DOCTYPE svg PUBLIC "-//W3C//DTD SVG 1.1//EN" "http://www.w3.org/Graphics/SVG/1.1/DTD/svg11.dtd"><svg xmlns="http://www.w3.org/2000/svg" xmlns:xlink="http://www.w3.org/1999/xlink"><symbol viewBox="0 0 50 50" id="facebook" xmlns="http://www.w3.org/2000/svg"><path d="M27.5 20v-3c0-1.3.3-2 2.4-2h2.6v-5h-4c-5 0-7 3.3-7 7v3h-4v5h4v15h6V25h4.4l.6-5h-5z"/></symbol><symbol viewBox="0 0 50 50" id="twitter" xmlns="http://www.w3.org/2000/svg"><path d="M39.7 15.8c-1.1.5-2.3.8-3.5 1 1.3-.8 2.2-1.9 2.7-3.3-1.2.7-2.5 1.2-3.8 1.5-1.1-1.3-2.7-2-4.4-2-3.3 0-6.1 2.7-6.1 6.1 0 .5.1.9.2 1.4-5-.3-9.5-2.7-12.5-6.3-.5.9-.8 1.9-.8 3 0 2.1 1.1 4 2.7 5-1 0-1.9-.3-2.7-.8v.1c0 2.9 2.1 5.4 4.9 5.9-.5.1-1 .2-1.6.2-.4 0-.8 0-1.1-.1.8 2.4 3 4.2 5.7 4.2-2.1 1.6-4.7 2.6-7.5 2.6-.5 0-1 0-1.4-.1 2.7 1.7 5.8 2.7 9.3 2.7 11.1 0 17.2-9.2 17.2-17.2v-.8c.9-.8 1.9-1.8 2.7-3.1z"/></symbol><symbol viewBox="0 0 50 50" id="vkontakte" xmlns="http://www.w3.org/2000/svg"><path fill-rule="evenodd" clip-rule="evenodd" d="M24.6 34.3h2s.6-.1.9-.4c.3-.3.3-.9.3-.9s0-2.6 1.2-3c1.2-.4 2.8 2.6 4.4 3.7 1.2.9 2.2.7 2.2.7l4.4-.1s2.3-.1 1.2-2c-.1-.1-.6-1.3-3.3-3.8-2.8-2.6-2.4-2.1.9-6.6 2-2.7 2.8-4.3 2.6-5.1-.2-.7-1.7-.5-1.7-.5h-5s-.4-.1-.6.1c-.3.2-.4.5-.4.5s-.8 2.1-1.8 3.9c-2.2 3.7-3.1 3.9-3.4 3.7-.8-.5-.6-2.2-.6-3.3 0-3.6.6-5.1-1.1-5.5-.5-.1-.9-.2-2.3-.2-1.8 0-3.3 0-4.1.4-.6.3-1 .9-.7.9.3 0 1.1.2 1.5.7.5.7.5 2.2.5 2.2s.3 4.3-.7 4.8c-.7.4-1.6-.4-3.6-3.8-1-1.7-1.8-3.7-1.8-3.7s-.1-.4-.4-.6c-.3-.2-.8-.3-.8-.3H9.7s-.7 0-1 .3c-.2.3 0 .8 0 .8s3.7 8.6 7.9 13c3.7 4.4 8 4.1 8 4.1z"/></symbol><symbol viewBox="0 0 50 50" id="youtube" xmlns="http://www.w3.org/2000/svg"><path d="M39.7 19.1s-.3-2.1-1.2-3c-1.1-1.2-2.4-1.2-3-1.3-4.2-.3-10.5-.3-10.5-.3s-6.3 0-10.5.3c-.6.1-1.9.1-3 1.3-.9.9-1.2 3-1.2 3s-.3 2.4-.3 4.8v2.2c0 2.4.3 4.9.3 4.9s.3 2.1 1.2 3c1.1 1.2 2.6 1.2 3.3 1.3 2.4.2 10.2.3 10.2.3s6.3 0 10.5-.3c.6-.1 1.9-.1 3-1.3.9-.9 1.2-3 1.2-3s.3-2.4.3-4.9v-2.2c0-2.4-.3-4.8-.3-4.8zm-17.8 9.8v-8.4l8.1 4.2-8.1 4.2z"/></symbol></svg>